<?xml version="1.0" encoding="UTF-8" standalone="no"?><!DOCTYPE svg PUBLIC "-//W3C//DTD SVG 1.1//EN" "http://www.w3.org/Graphics/SVG/1.1/DTD/svg11.dtd"><svg width="100%" height="100%" viewBox="0 0 698 275" version="1.1" xmlns="http://www.w3.org/2000/svg" xmlns:xlink="http://www.w3.org/1999/xlink" xml:space="preserve" xmlns:serif="http://www.serif.com/" style="fill-rule:evenodd;clip-rule:evenodd;stroke-linecap:round;stroke-linejoin:round;stroke-miterlimit:1.5;"><rect id="Artboard1" x="0" y="0" width="697.264" height="274.943" style="fill:none;"/><clipPath id="_clip1"><rect x="0" y="0" width="697.264" height="274.943"/></clipPath><g clip-path="url(#_clip1)"><path d="M638.703,44.563c-0,127.175 -142.292,230.425 -317.556,230.425c-175.263,-0 -317.555,-103.25 -317.555,-230.425c-0,22.763 142.292,41.242 317.555,41.242c175.264,0 317.556,-18.479 317.556,-41.242Z" style="fill:url(#_Linear2);"/><g opacity="0.31"><g style="filter:url(#_Effect3);"><path d="M321.147,274.988c-164.097,-0 -239.079,-203.292 -239.079,-203.292l77.102,8.341c-0,-0 54.309,194.951 161.977,194.951Z" style="fill:#fefffe;"/></g></g><path d="M638.703,44.563c-0,22.763 -142.292,41.242 -317.556,41.242c-175.263,0 -317.555,-18.479 -317.555,-41.242" style="fill:none;stroke:#d9bfb0;stroke-width:5.56px;"/></g><defs><linearGradient id="_Linear2" x1="0" y1="0" x2="1" y2="0" gradientUnits="userSpaceOnUse" gradientTransform="matrix(1.41123e-14,230.425,-230.471,1.41094e-14,321.147,44.5635)"><stop offset="0" style="stop-color:#1bafa9;stop-opacity:1"/><stop offset="1" style="stop-color:#007873;stop-opacity:1"/></linearGradient><filter id="_Effect3" filterUnits="userSpaceOnUse" x="73.9419" y="63.57" width="255.332" height="219.544"><feGaussianBlur in="SourceGraphic" stdDeviation="1.35438"/></filter></defs></svg>