<?xml version="1.0" encoding="UTF-8" standalone="no"?><!DOCTYPE svg PUBLIC "-//W3C//DTD SVG 1.1//EN" "http://www.w3.org/Graphics/SVG/1.1/DTD/svg11.dtd"><svg width="100%" height="100%" viewBox="0 0 231 436" version="1.1" xmlns="http://www.w3.org/2000/svg" xmlns:xlink="http://www.w3.org/1999/xlink" xml:space="preserve" xmlns:serif="http://www.serif.com/" style="fill-rule:evenodd;clip-rule:evenodd;stroke-linecap:round;stroke-linejoin:round;stroke-miterlimit:1.5;"><g><g><path d="M185.74,433.423c-8.098,-0 -16.359,-2.174 -24.274,-1.382c-14.791,1.48 -29.748,0.011 -44.597,1.065c-18.424,1.308 -36.648,2.512 -55.222,2.512c-5.067,0 -9.772,-1.261 -14.683,-1.436c-13.681,-0.488 -24.775,-1.02 -33.436,-12.572c-2.786,-3.717 -5.962,-7.403 -7.807,-11.754c-6.104,-14.395 -3.025,-31.048 -2.481,-45.994c0.182,-4.973 -0.93,-9.754 -0.93,-14.644c0,-5.414 0.795,-11.556 -0.178,-16.893c-0.948,-5.2 -1.6,-25.903 -1.108,-31.546c0.4,-4.594 0.174,-9.514 0.001,-14.124c-0.261,-6.98 -1.093,-27.858 -1.022,-31.587c0.112,-5.93 1.238,-26.017 1.617,-30.179c0.879,-9.649 1.086,-20.188 1.086,-29.896c0,-10.035 0.956,-20.188 0.493,-30.185c-0.318,-6.854 -1.543,-13.634 -1.154,-20.526c0.306,-5.412 1.621,-10.428 1.393,-15.968c-0.561,-13.663 -1.823,-27.344 -1.256,-41.107c0.252,-6.114 2.177,-11.784 2.621,-17.865c1.366,-18.745 -9.043,-42.277 7.629,-57.483c5.897,-5.379 11.907,-4.253 18.75,-6.889c3.179,-1.225 16.504,-5.271 19.995,-4.944c7.258,0.679 14.904,0.617 22.157,1.009c15.192,0.82 30.353,-0.705 45.423,1.256c5.686,0.74 24.892,-1.63 29.541,-1.37c3.439,0.192 20.101,1.487 26.705,1.204c8.901,-0.381 15.008,0.644 23.347,2.456c1.935,0.42 5.498,0.294 7.272,1.703c1.45,1.149 2.113,3.242 3.673,4.337c2.914,2.048 6.688,3.594 8.634,6.524c16.457,24.794 12.985,57.157 9.898,85.29c-1.063,9.693 0.902,19.522 0.487,29.25c-0.147,3.446 -0.683,7.958 -1.531,11.31c-1.23,4.862 0.292,11.542 0.292,16.626c-0,14.325 0.945,28.561 0.945,42.873c-0,9.817 -1.389,19.373 -1.043,29.278c0.131,3.728 1.82,7.494 1.865,11.195c0.39,32.493 -1.627,64.88 -1.627,97.385c0,4.869 -0.635,10.423 -0.013,15.189c0.982,7.522 4.107,19.38 1.185,27.007c-2.96,7.724 -1.398,16.528 -2.471,24.567c-0.649,4.856 -3.926,6.537 -6.427,9.984c-1.862,2.565 -2.159,5.453 -4.646,7.723c-2.805,2.563 -14.522,6.909 -17.707,7.938c-3.443,1.113 -11.396,1.432 -11.396,0.663Z" style="fill:#895c3d;"/><path d="M185.74,433.423c-8.098,-0 -16.359,-2.174 -24.274,-1.382c-14.791,1.48 -29.748,0.011 -44.597,1.065c-18.424,1.308 -36.648,2.512 -55.222,2.512c-5.067,0 -9.772,-1.261 -14.683,-1.436c-13.681,-0.488 -24.775,-1.02 -33.436,-12.572c-2.786,-3.717 -5.962,-7.403 -7.807,-11.754c-6.104,-14.395 -3.025,-31.048 -2.481,-45.994c0.182,-4.973 -0.93,-9.754 -0.93,-14.644c0,-5.414 0.795,-11.556 -0.178,-16.893c-0.948,-5.2 -1.6,-25.903 -1.108,-31.546c0.4,-4.594 0.174,-9.514 0.001,-14.124c-0.261,-6.98 -1.093,-27.858 -1.022,-31.587c0.112,-5.93 1.238,-26.017 1.617,-30.179c0.879,-9.649 1.086,-20.188 1.086,-29.896c0,-10.035 0.956,-20.188 0.493,-30.185c-0.318,-6.854 -1.543,-13.634 -1.154,-20.526c0.306,-5.412 1.621,-10.428 1.393,-15.968c-0.561,-13.663 -1.823,-27.344 -1.256,-41.107c0.252,-6.114 2.177,-11.784 2.621,-17.865c1.366,-18.745 -9.043,-42.277 7.629,-57.483c5.897,-5.379 11.907,-4.253 18.75,-6.889c3.179,-1.225 16.504,-5.271 19.995,-4.944c7.258,0.679 14.904,0.617 22.157,1.009c15.192,0.82 30.353,-0.705 45.423,1.256c5.686,0.74 24.892,-1.63 29.541,-1.37c3.439,0.192 20.101,1.487 26.705,1.204c8.901,-0.381 15.008,0.644 23.347,2.456c1.935,0.42 5.498,0.294 7.272,1.703c1.45,1.149 2.113,3.242 3.673,4.337c2.914,2.048 6.688,3.594 8.634,6.524c16.457,24.794 12.985,57.157 9.898,85.29c-1.063,9.693 0.902,19.522 0.487,29.25c-0.147,3.446 -0.683,7.958 -1.531,11.31c-1.23,4.862 0.292,11.542 0.292,16.626c-0,14.325 0.945,28.561 0.945,42.873c-0,9.817 -1.389,19.373 -1.043,29.278c0.131,3.728 1.82,7.494 1.865,11.195c0.39,32.493 -1.627,64.88 -1.627,97.385c0,4.869 -0.635,10.423 -0.013,15.189c0.982,7.522 4.107,19.38 1.185,27.007c-2.96,7.724 -1.398,16.528 -2.471,24.567c-0.649,4.856 -3.926,6.537 -6.427,9.984c-1.862,2.565 -2.159,5.453 -4.646,7.723c-2.805,2.563 -14.522,6.909 -17.707,7.938c-3.443,1.113 -11.396,1.432 -11.396,0.663Z" style="fill:#895c3d;"/></g><g style="filter:url(#_Effect1);"><path d="M38.967,69.676c-13.223,-0 -23.958,-10.736 -23.958,-23.959c0.001,-13.223 10.736,-23.958 23.959,-23.958c37.963,0.001 75.972,1.844 113.948,2.012c11.852,0.052 24.038,-0.949 35.724,-0.949c13.223,-0 23.959,10.735 23.959,23.958c-0,13.223 -10.736,23.959 -23.959,23.959c-11.755,-0 -24.014,1.001 -35.936,0.948c-37.906,-0.168 -75.845,-2.01 -113.737,-2.011Z" style="fill:#5e3a24;"/></g><g style="filter:url(#_Effect2);"><path d="M35.467,114.447c-13.798,-0 -25,-11.202 -25,-25c-0,-13.798 11.202,-25 25,-25c13.036,-0 25.934,1.588 38.947,2.101c16.004,0.632 31.863,-0.65 47.839,-0.589c21.101,0.079 42.163,1.106 63.218,-0.543c13.756,-1.077 25.798,9.216 26.875,22.972c1.078,13.755 -9.215,25.798 -22.971,26.875c-22.418,1.756 -44.843,0.78 -67.311,0.695c-16.57,-0.062 -33.022,1.207 -49.622,0.551c-12.355,-0.487 -24.598,-2.062 -36.975,-2.062Z" style="fill:#5e3a24;"/></g><g style="filter:url(#_Effect3);"><path d="M186.972,115.683c6.679,-0.276 13.452,2.108 18.585,7.165c5.289,5.211 6.571,10.272 7.155,13.579c1.923,10.878 -1.647,19.588 -11.505,25.682c-2.008,1.241 -18.279,3.352 -18.279,3.352c0,0 1.714,0.167 2.293,0.182c-1.641,-0.044 -3.288,-0.054 -4.921,-0.216c-2.187,-0.218 -5.037,0.112 -7.379,0.1c-10.152,-0.051 -20.304,-0.07 -30.456,-0.07c-23.549,0 -47.101,0.104 -70.65,0c-9.659,-0.043 -19.844,-1.35 -29.468,-0.181c-13.697,1.664 -26.169,-8.105 -27.833,-21.803c-1.663,-13.697 8.106,-26.168 21.803,-27.832c11.666,-1.417 24.011,-0.235 35.719,-0.183c23.475,0.103 46.953,-0.001 70.429,-0.001c10.237,0 20.472,0.019 30.708,0.071c3.834,0.019 8.499,-0.212 12.078,0.145c0.43,0.042 0.864,-0.024 1.296,-0.012c0.114,0.003 0.259,0.01 0.425,0.022Zm-23.934,23.915c-0.436,4.93 0.292,11.837 7.428,18.867c-5.233,-5.156 -7.714,-12.057 -7.428,-18.867Z" style="fill:#5e3a24;"/></g><g style="filter:url(#_Effect4);"><path d="M40.04,163.776c0.725,-0.094 1.388,-0.157 1.898,-0.164c1.901,-0.03 3.802,-0.04 5.703,-0.064c11.447,-0.14 22.898,-0.338 34.346,-0.361c34.845,-0.068 69.75,1.109 104.615,1.109c13.798,-0 25,11.202 25,25c-0,13.798 -11.202,25 -25,25c-34.832,-0 -69.705,-1.177 -104.518,-1.109c-11.276,0.022 -22.556,0.22 -33.831,0.358c-1.849,0.022 -3.699,0.032 -5.548,0.061c1.467,-0.023 4.885,-0.634 4.885,-0.634c-0,0 -24.653,-1.534 -30.573,-11.193c-7.211,-11.763 -3.514,-27.168 8.25,-34.379c4.603,-2.821 9.764,-3.973 14.773,-3.624Z" style="fill:#5e3a24;"/></g><g style="filter:url(#_Effect5);"><path d="M43.292,273.234c-1.449,0.262 -2.942,0.398 -4.466,0.398c-13.798,0 -25,-11.202 -25,-25c-0,-14.023 29.776,-25.198 29.776,-25.198c0,-0 -2.846,-0.145 -3.929,-0.069c2.496,-0.175 7.054,-0.425 9.111,-0.523c8.94,-0.427 17.884,-0.829 26.826,-1.186c38.432,-1.532 77.451,-0.168 115.897,-0.168c13.798,0 25,11.202 25,25c-0,13.798 -11.202,25 -25,25c-37.786,0 -76.134,-1.378 -113.904,0.128c-8.812,0.352 -17.626,0.748 -26.435,1.169c-1.772,0.085 -5.654,0.296 -7.876,0.449Zm15.121,-9.072c3.308,-3.89 5.413,-8.885 5.413,-15.53c-0,5.866 -2.025,11.263 -5.413,15.53Z" style="fill:#5e3a24;"/></g><g style="filter:url(#_Effect6);"><path d="M12.751,278.355c2.76,-6.941 8.975,-14.685 22.952,-14.685c0.748,0 1.904,0.026 3.365,0.225c0.184,-0.007 0.374,-0.003 0.568,0.01c0.696,0.047 1.125,0.033 1.84,0.045c3.504,0.057 6.993,0.222 10.495,0.332c11.491,0.359 22.991,0.292 34.48,0.791c24.578,1.068 49.257,2.492 73.851,2.943c12.164,0.223 25.476,-0.71 37.499,1.672c13.535,2.681 22.346,15.846 19.665,29.381c-2.681,13.535 -15.847,22.347 -29.381,19.666c-9.196,-1.822 -19.397,-0.557 -28.7,-0.728c-25.012,-0.459 -50.109,-1.895 -75.104,-2.981c-11.286,-0.49 -22.583,-0.416 -33.871,-0.769c-0.128,-0.004 -0.256,-0.008 -0.384,-0.012c-1.754,0.84 -3.748,1.563 -5.98,2.061c-3.003,0.67 -7.949,0.726 -10.37,0.726c-13.798,-0 -25,-11.202 -25,-25c0,-5.047 1.499,-9.746 4.075,-13.677Z" style="fill:#5e3a24;"/></g><g style="filter:url(#_Effect7);"><path d="M191.887,320.571c4.993,-0.806 10.275,-0.111 15.139,2.321c10.711,5.356 12.547,13.272 13.392,17.084c2.089,9.423 0.347,19.424 -11.145,26.645c-1.755,1.103 -4.316,2.433 -7.818,3.241c-1.573,0.363 -6.321,0.69 -8.352,0.704c-1.538,0.011 -3.076,0.001 -4.614,0.001l-11.941,-0c-12.117,-0 -24.231,0.15 -36.347,0.213c-26.258,0.134 -52.287,-1.544 -78.37,-4.642c-10.437,-1.24 -21.185,-3.932 -31.735,-3.932c-13.798,0 -25,-11.202 -25,-25c-0,-13.798 11.202,-25 25,-25c12.496,0 25.271,2.813 37.632,4.281c24.036,2.855 48.02,4.418 72.216,4.293c12.202,-0.062 24.401,-0.213 36.604,-0.213l11.941,-0c1.133,-0 2.265,0.006 3.398,0.004Zm-15.681,40.154c1.634,2.182 4.182,4.75 8.46,6.889c-3.405,-1.703 -6.252,-4.08 -8.46,-6.889Z" style="fill:#5e3a24;"/></g><g style="filter:url(#_Effect8);"><path d="M41.824,411.424c-11.491,2.511 -23.525,-3.404 -28.311,-14.616c-5.418,-12.69 0.487,-27.391 13.177,-32.808c5.122,-2.187 17.654,-2.33 22.321,-2.268c13.349,0.177 26.682,0.999 40.033,1.199c32.258,0.483 64.583,0.07 96.831,0.07c13.798,0 25,11.202 25,25c0,13.798 -11.202,25 -25,25c-32.497,0 -65.072,0.411 -97.579,-0.075c-13.323,-0.2 -26.627,-1.022 -39.949,-1.199c-1.138,-0.015 -4.871,-0.213 -6.523,-0.303Z" style="fill:#5e3a24;"/></g><g style="filter:url(#_Effect9);"><path d="M28.929,40.48c1.74,-2.142 13.236,-22.446 19.886,-12.599c6.501,9.626 -8.004,25.795 -18.079,25.77c-4.093,-0.01 -1.942,-9.487 -1.942,-11.615c-0,-1.381 2.103,-4.951 2.103,-3.57" style="fill:#d9bfb0;stroke:#d9bfb0;stroke-width:2.08px;"/></g><g style="filter:url(#_Effect10);"><path d="M168.208,91.895c3.005,-4.366 3.116,-9.02 8.894,-11.004c2.261,-0.776 7.719,-1.4 9.912,0.019c3.509,2.27 0.529,8.758 -1.369,10.87c-4.59,5.107 -13.78,10.278 -20.551,11.058c-1.473,0.17 -6.511,1.099 -7.84,-0.028c-0.995,-0.844 -0.191,-4.147 0.232,-5.093c1.931,-4.32 7.792,-4.838 11.803,-5.936" style="fill:#d9bfb0;stroke:#cea58b;stroke-width:2.08px;"/></g><g style="filter:url(#_Effect11);"><path d="M161.304,370.408c4.919,-2.17 12.059,-12.818 15.96,-16.809c3.057,-3.127 7.428,-9.505 12.723,-8.461c2.27,0.448 1.928,4.972 1.989,6.429c0.219,5.179 1.478,13.6 -2.096,18.048c-5.521,6.87 -15.01,9.755 -23.571,9.427c-5.22,-0.2 -3.95,-8.716 -1.283,-11.309" style="fill:#956448;"/></g></g><defs><filter id="_Effect1" filterUnits="userSpaceOnUse" x="-59.9905" y="-53.2406" width="347.589" height="199.93"><feGaussianBlur in="SourceGraphic" stdDeviation="12.5"/></filter><filter id="_Effect2" filterUnits="userSpaceOnUse" x="-64.5331" y="-10.5532" width="351.956" height="202.264"><feGaussianBlur in="SourceGraphic" stdDeviation="12.5"/></filter><filter id="_Effect3" filterUnits="userSpaceOnUse" x="-60.668" y="39.873" width="348.763" height="201.008"><feGaussianBlur in="SourceGraphic" stdDeviation="12.5"/></filter><filter id="_Effect4" filterUnits="userSpaceOnUse" x="-61.6684" y="88.1845" width="348.27" height="201.111"><feGaussianBlur in="SourceGraphic" stdDeviation="12.5"/></filter><filter id="_Effect5" filterUnits="userSpaceOnUse" x="-61.1742" y="145.92" width="352.681" height="202.712"><feGaussianBlur in="SourceGraphic" stdDeviation="12.5"/></filter><filter id="_Effect6" filterUnits="userSpaceOnUse" x="-66.3238" y="188.67" width="359.267" height="205.541"><feGaussianBlur in="SourceGraphic" stdDeviation="12.5"/></filter><filter id="_Effect7" filterUnits="userSpaceOnUse" x="-69.904" y="237.206" width="365.916" height="208.581"><feGaussianBlur in="SourceGraphic" stdDeviation="12.5"/></filter><filter id="_Effect8" filterUnits="userSpaceOnUse" x="-63.4948" y="286.378" width="349.37" height="201.787"><feGaussianBlur in="SourceGraphic" stdDeviation="12.5"/></filter><filter id="_Effect9" filterUnits="userSpaceOnUse" x="-10.3124" y="-13.3398" width="99.2889" height="105.533"><feGaussianBlur in="SourceGraphic" stdDeviation="6.25"/></filter><filter id="_Effect10" filterUnits="userSpaceOnUse" x="80.7355" y="4.02057" width="183.947" height="175.38"><feGaussianBlur in="SourceGraphic" stdDeviation="12.5"/></filter><filter id="_Effect11" filterUnits="userSpaceOnUse" x="123.804" y="307.524" width="106.064" height="109.043"><feGaussianBlur in="SourceGraphic" stdDeviation="6.25"/></filter></defs></svg>